<svg width="310" height="198" viewBox="0 0 310 198" fill="none" xmlns="http://www.w3.org/2000/svg">
<rect x="137" y="173" width="18" height="18" fill="#F3EDD7"/>
<rect x="155" y="173" width="18" height="18" fill="#E1CCAC"/>
<rect x="92" y="160" width="63" height="19" fill="#F3EDD7"/>
<rect x="155" y="161" width="63" height="18" fill="#E1CCAC"/>
<path d="M0.689608 180.99C0.353075 178.25 2.30215 175.755 5.04299 175.418L12.8659 174.458C15.6068 174.121 18.1015 176.07 18.438 178.811L19.413 186.751C19.7495 189.492 17.8004 191.987 15.0596 192.324L7.23664 193.284C4.4958 193.621 2.0011 191.672 1.66456 188.931L0.689608 180.99Z" fill="#315235"/>
<path d="M295.473 178.977C295.762 176.23 298.222 174.238 300.968 174.527L305.017 174.952C307.763 175.241 309.756 177.701 309.467 180.447L308.631 188.404C308.342 191.15 305.882 193.142 303.136 192.854L299.087 192.428C296.34 192.139 294.348 189.679 294.637 186.933L295.473 178.977Z" fill="#315235"/>
<path d="M7.40264 161.683C6.5367 153.444 12.5137 146.063 20.7525 145.197L122.194 134.535C138.672 132.803 153.433 144.757 155.165 161.235V161.235L8.97057 176.601L7.40264 161.683Z" fill="#F3EDD7"/>
<path d="M302.732 161.683C303.598 153.444 297.621 146.063 289.382 145.197L187.941 134.535C171.463 132.803 156.701 144.757 154.969 161.235V161.235L301.164 176.601L302.732 161.683Z" fill="#E1CCAC"/>
<path d="M109.96 90.456L65.176 60.792V51.288L109.96 21.912V36.168L79 56.184L109.96 76.2V90.456ZM123.381 105L122.949 103.128L170.325 5.352H183.717L183.573 7.51199L136.341 105H123.381ZM196.507 90.456V76.2L227.611 56.184L196.507 36.168V21.912L241.435 51.288V60.792L196.507 90.456Z" fill="white"/>
<path d="M8.5 184L109.902 171.762C119.118 170.65 128.334 173.834 134.898 180.398L135.76 181.26C137.574 183.074 139.679 184.572 141.987 185.691V185.691C150.177 189.662 159.761 189.543 167.849 185.368V185.368C169.609 184.46 171.244 183.328 172.714 182L174.931 179.998C181.965 173.645 191.4 170.638 200.813 171.75L304.5 184" stroke="#315235" stroke-width="18"/>
</svg>
