<svg width="352" height="200" viewBox="0 0 352 200" fill="none" xmlns="http://www.w3.org/2000/svg">
<rect x="158" y="173" width="18" height="18" fill="#F3EDD7"/>
<rect x="176" y="173" width="18" height="18" fill="#E1CCAC"/>
<rect x="113" y="160" width="63" height="19" fill="#F3EDD7"/>
<rect x="176" y="160" width="63" height="19" fill="#E1CCAC"/>
<rect y="162" width="142" height="18" rx="9" fill="#315235"/>
<rect x="210" y="162" width="142" height="18" rx="9" fill="#315235"/>
<path d="M155.77 186.406L151.462 181.847C144.869 174.869 135.74 170.536 125.808 169.669L117.664 168.958" stroke="#315235" stroke-width="18"/>
<path d="M196.23 186.406L200.538 181.847C207.131 174.869 216.26 170.536 226.192 169.669L234.336 168.958" stroke="#315235" stroke-width="18"/>
<path d="M152 184L158.692 186.788C169.769 191.404 182.231 191.404 193.308 186.788L200 184" stroke="#315235" stroke-width="18"/>
<path d="M29 147C29 135.954 37.9543 127 49 127H141C160.33 127 176 142.67 176 162V162H29V147Z" fill="#F3EDD7"/>
<path d="M323 147C323 135.954 314.046 127 303 127H211C191.67 127 176 142.67 176 162V162H323V147Z" fill="#E1CCAC"/>
<path d="M130.96 90.456L86.176 60.792V51.288L130.96 21.912V36.168L100 56.184L130.96 76.2V90.456ZM144.381 105L143.949 103.128L191.325 5.352H204.717L204.573 7.51199L157.341 105H144.381ZM217.507 90.456V76.2L248.611 56.184L217.507 36.168V21.912L262.435 51.288V60.792L217.507 90.456Z" fill="white"/>
</svg>
